<svg class="prefix__svg-inline--fa prefix__fa-cart-shopping" xmlns="http://www.w3.org/2000/svg" viewBox="0 0 512 512"><path stroke="#ffffff" fill="rgba(0, 0, 0, 0.61)" d="M 406.1 413.6 c -22.8 0 -40.5 20.9 -40.5 46.7 s 18.5 46.7 40.5 46.7 s 40.5 -20.9 40.5 -46.7 s -16.9 -46.7 -40.5 -46.7 z m -247.6 0 c -22.8 0 -40.5 20.9 -40.5 46.7 s 18.5 46.7 40.5 46.7 s 40.5 -20.9 40.5 -46.7 s -16.9 -46.7 -40.5 -46.7 z M 497.6 52.5 c -5.2 -7.9 -13.2 -12.4 -22 -12.4 H 112.1 l -1.3 -12.2 C 108.9 17 100.4 9 90.5 9 H 27.9 C 17.3 9 8 19.5 8 31.5 S 17.3 55.7 27.9 55.7 h 44.8 l 51.8 307.8 c 2.7 11 11.2 19 21.1 19 h 282 c 11.4 0 20.6 -10.5 20.6 -22.5 c 0 -13.8 -9.2 -24.2 -20.6 -24.2 H 162.7 l -7.9 -46.7 h 273.7 c 12.3 0 23 -9.2 26.5 -22.6 l 47.2 -185.9 c 2.3 -10.4 0.7 -20.3 -4.6 -28.2 z"/>
</svg>