<svg class="svg-inline--fa fa-cart-shopping" xmlns="http://www.w3.org/2000/svg" viewBox="0 0 576 512"><path stroke="rgb(255, 255, 255)" fill="rgb(255, 255, 255)" d="M 463.1 416 c -26.5 0 -47.1 21.5 -47.1 48 s 21.5 48 47.1 48 s 47.1 -21.5 47.1 -48 S 490.5 416 463.1 416 z M 175.1 416 c -26.5 0 -47.1 21.5 -47.1 48 S 149.5 512 175.1 512 s 47.1 -21.5 47.1 -48 S 202.5 416 175.1 416 z M 569.5 44.7 c -6.1 -8.1 -15.4 -12.7 -25.6 -12.7 H 121.1 L 119.6 19.5 C 117.4 8.2 107.5 0 96 0 H 23.1 C 10.8 0 0 10.8 0 23.1 S 10.8 48 23.1 48 h 52.1 l 60.3 316.5 C 138.6 375.8 148.5 384 160 384 H 488 c 13.3 0 24 -10.8 24 -23.1 C 512 346.7 501.3 336 488 336 H 179.9 L 170.7 288 h 318.4 c 14.3 0 26.8 -9.5 30.8 -23.2 l 54.9 -191.1 C 577.5 63 575.6 52.8 569.5 44.7 z"></path></svg>