<svg class="prefix__svg-inline--fa prefix__fa-cart-shopping" xmlns="http://www.w3.org/2000/svg" viewBox="0 0 576 512"><path stroke="#ffffff" fill="rgb(255, 255, 255)" d="M 463.1 416 c -26.5 0 -47.1 21.5 -47.1 48 s 21.5 48 47.1 48 s 47.1 -21.5 47.1 -48 s -19.7 -48 -47.1 -48 z m -288 0 c -26.5 0 -47.1 21.5 -47.1 48 s 21.5 48 47.1 48 s 47.1 -21.5 47.1 -48 s -19.7 -48 -47.1 -48 z M 569.5 44.7 c -6.1 -8.1 -15.4 -12.7 -25.6 -12.7 H 121.1 l -1.5 -12.5 C 117.4 8.2 107.5 0 96 0 H 23.1 C 10.8 0 0 10.8 0 23.1 S 10.8 48 23.1 48 h 52.1 l 60.3 316.5 c 3.1 11.3 13 19.5 24.5 19.5 h 328 c 13.3 0 24 -10.8 24 -23.1 c 0 -14.2 -10.7 -24.9 -24 -24.9 H 179.9 l -9.2 -48 h 318.4 c 14.3 0 26.8 -9.5 30.8 -23.2 l 54.9 -191.1 c 2.7 -10.7 0.8 -20.9 -5.3 -29 z"/></svg>