<svg class="svg-inline--fa fa-store" xmlns="http://www.w3.org/2000/svg" viewBox="0 0 576 512"><path fill="rgb(0, 194, 195)" d="M 483.5 254 C 471.3 254 459.4 252 448 248.5 V 382 H 127.9 V 248.5 C 116.5 252 104.5 254 92.3 254 C 86.9 254 81.5 253.6 75.1 252.9 C 71.8 252.4 68 250.8 64 249.7 L 64 462 c 0 26.5 21.5 48 47.1 48 h 352.1 c 26.5 0 47.1 -21.5 47.1 -48 l 0 -212.3 c -4.1 1.1 -8.1 2.7 -12.4 3.3 C 494.4 253.6 489 254 483.5 254 z M 547.6 101.8 l -57.3 -90.7 c -5.1 -8.2 -14.2 -13.1 -23.9 -13.1 H 109.6 c -9.7 0 -18.8 5 -23.9 13.1 L 28.3 101.8 c -29.6 46.8 -3.4 111.9 51.9 119.4 C 84.2 221.7 88.3 222 92.4 222 c 26.1 0 49.3 -11.4 65.2 -29 C 173.4 210.6 196.7 222 222.7 222 c 26.1 0 49.3 -11.4 65.2 -29 C 303.8 210.6 327 222 353.1 222 c 26.2 0 49.3 -11.4 65.2 -29 C 434.2 210.6 457.4 222 483.4 222 c 4.1 0 8.1 -0.3 12.1 -0.8 C 551 213.8 577.3 148.7 547.6 101.8 z"></path></svg>